<svg xmlns="http://www.w3.org/2000/svg"
     viewBox="0 0 64 64"
     width="64" height="64"
     fill="none"
     color="currentColor"
     aria-hidden="true">
  <g stroke="currentColor"
     stroke-width="2.25"
     stroke-linecap="round"
     stroke-linejoin="round">
    <!-- Copa del árbol -->
    <path d="M32 13c-5.8 0-10 4.4-10 9.3-4.1.8-7 4.1-7 8.1 0 4.6 3.8 8.3 8.5 8.3h17c4.7 0 8.5-3.7 8.5-8.3 0-4-2.9-7.3-7-8.1C42 17.4 37.8 13 32 13Z"/>

    <!-- Tronco -->
    <path d="M29.5 38.7v8.8"/>
    <path d="M34.5 38.7v8.8"/>

    <!-- Macetero -->
    <path d="M25 47.5h14l-2 6.5H27l-2-6.5Z"/>

    <!-- Ramas mínimas -->
    <path d="M32 38V27"/>
    <path d="M32 32l-5-4"/>
    <path d="M32 31l5-4"/>
  </g>
</svg>
